<?xml version="1.0" standalone="no"?>
<!DOCTYPE svg PUBLIC "-//W3C//DTD SVG 20010904//EN"
 "http://www.w3.org/TR/2001/REC-SVG-20010904/DTD/svg10.dtd">
<svg version="1.0" xmlns="http://www.w3.org/2000/svg"
 width="500.000000pt" height="500.000000pt" viewBox="0 0 500.000000 500.000000"
 preserveAspectRatio="xMidYMid meet">
<metadata>
Created by potrace 1.11, written by Peter Selinger 2001-2013
</metadata>
<g transform="translate(0.000000,500.000000) scale(0.100000,-0.100000)"
fill="#000000" stroke="none">
<path d="M2450 4991 c-8 -6 -17 -8 -21 -5 -4 2 -380 -206 -836 -462 -1172
-660 -1215 -685 -1230 -700 -8 -8 -18 -14 -23 -14 -5 0 -16 -13 -24 -29 -13
-25 -15 -189 -16 -1249 -1 -1082 0 -1223 14 -1244 17 -27 -24 -1 926 -568 399
-238 834 -498 967 -577 l242 -145 58 4 c32 3 70 11 83 18 14 7 228 132 475
278 248 146 554 326 680 400 127 74 365 215 531 312 165 98 314 185 330 193
17 9 35 27 42 42 9 20 12 320 12 1241 0 1334 4 1245 -58 1303 -22 20 -574 347
-1487 881 -110 65 -272 160 -360 211 -88 52 -173 100 -188 107 -33 14 -96 16
-117 3z m735 -986 l577 -670 -636 -3 c-350 -1 -922 -1 -1272 0 l-637 3 628
725 c345 399 633 728 639 733 14 9 4 21 701 -788z m-1042 583 c-11 -13 -136
-158 -279 -323 -143 -165 -376 -434 -517 -597 -142 -164 -263 -298 -268 -298
-13 0 -549 313 -549 321 0 3 33 24 73 45 39 22 311 175 602 339 776 438 950
535 954 535 3 0 -5 -10 -16 -22z m985 -157 c158 -93 415 -244 572 -336 157
-92 378 -222 492 -288 114 -67 207 -124 207 -127 0 -6 -489 -304 -504 -307 -5
-1 -89 91 -187 205 -182 214 -302 354 -665 775 -118 136 -211 247 -208 247 3
0 135 -76 293 -169z m-2367 -1021 c149 -87 253 -155 251 -162 -1 -7 -34 -101
-72 -208 -179 -506 -336 -949 -385 -1085 l-54 -150 -3 873 c-2 481 -1 876 1
878 2 2 5 4 6 4 1 0 116 -67 256 -150z m3699 -747 c0 -510 -4 -893 -9 -887 -9
9 -496 1461 -496 1478 0 11 474 305 493 306 9 0 12 -186 12 -897z m-665 605
c8 -7 -27 -74 -253 -483 -248 -448 -611 -1067 -817 -1390 -175 -274 -234 -365
-240 -365 -7 0 -273 404 -352 535 -33 55 -128 215 -210 355 -83 140 -202 343
-265 450 -292 494 -489 863 -472 880 22 21 367 28 1446 26 636 0 1159 -4 1163
-8z m351 -971 c348 -1043 319 -946 291 -952 -47 -12 -1852 -323 -1855 -321 -1
2 84 151 191 332 160 272 598 1017 991 1686 62 106 82 134 89 122 5 -9 137
-399 293 -867z m-2979 806 c22 -38 134 -228 250 -423 198 -334 840 -1425 926
-1573 22 -37 37 -70 35 -73 -8 -8 -1820 334 -1855 350 -40 19 -44 1 92 381
121 339 269 755 406 1143 51 144 96 262 100 262 4 0 25 -30 46 -67z m488
-2061 l780 -147 3 -314 c2 -194 -1 -318 -7 -324 -6 -6 -142 70 -383 214 -205
122 -537 320 -738 440 -487 290 -467 278 -450 278 8 0 366 -66 795 -147z
m2480 119 c-14 -12 -1562 -921 -1569 -921 -3 0 -6 148 -6 328 l0 328 778 136
c838 147 811 142 797 129z"/>
</g>
</svg>
